<svg width="47" height="23" viewBox="0 0 47 23" fill="none" xmlns="http://www.w3.org/2000/svg">
<g clip-path="url(#clip0_414_286)">
<path d="M9.88581 7.4306C10.3356 7.28124 10.8154 7.20158 11.3132 7.20158C13.4923 7.20158 15.3115 8.74299 15.7274 10.7922L18.816 10.1649C18.1083 6.68379 15.0176 4.06299 11.3132 4.06299C10.4636 4.06299 9.64991 4.2004 8.88623 4.45531L9.88581 7.4306Z" fill="#FFCB05"/>
<path d="M6.24136 17.4L8.33048 15.0481C7.39887 14.2256 6.81112 13.0247 6.81112 11.6864C6.81112 10.3502 7.39887 9.14929 8.33048 8.3288L6.24136 5.97485C4.65803 7.37288 3.65845 9.41416 3.65845 11.6864C3.65845 13.9607 4.65803 16.002 6.24136 17.4" fill="#00A4E0"/>
<path d="M15.7274 12.5865C15.3095 14.6338 13.4923 16.1732 11.3152 16.1732C10.8154 16.1732 10.3336 16.0936 9.88581 15.9422L8.88623 18.9215C9.64991 19.1744 10.4656 19.3118 11.3152 19.3118C15.0156 19.3118 18.1043 16.695 18.816 13.2179L15.7274 12.5865Z" fill="#EF4123"/>
<path d="M21.5169 15.1457C21.415 14.9824 21.279 14.7215 21.1951 14.5283C20.7053 13.3972 20.6833 12.2262 21.0951 11.103C21.5489 9.87022 22.4165 8.92824 23.5381 8.4463C24.9475 7.84288 26.5048 7.96038 27.8562 8.75897C28.7139 9.24887 29.3216 10.0056 29.7834 11.0771C29.8414 11.2145 29.8934 11.3599 29.9454 11.4853L21.5169 15.1457ZM24.3317 10.2645C23.3302 10.6927 22.8144 11.6287 22.9223 12.724L27.1605 10.9058C26.4308 10.0534 25.4832 9.77065 24.3317 10.2645V10.2645ZM27.6883 14.2196C27.6863 14.2196 27.6863 14.2216 27.6863 14.2216L27.5984 14.1619C27.3445 14.5701 26.9506 14.9027 26.4528 15.1178C25.5052 15.528 24.6276 15.4225 23.9959 14.8709L23.9379 14.9585C23.9379 14.9585 23.9379 14.9565 23.9359 14.9565L22.8604 16.5596C23.1282 16.7448 23.4141 16.9002 23.714 17.0256C24.9015 17.5175 26.117 17.4936 27.3145 16.9759C28.1801 16.6015 28.8598 16.0319 29.3236 15.309L27.6883 14.2196ZM32.8901 6.08838V14.9983L34.2815 15.5599L33.4919 17.3961L31.9565 16.7588C31.6127 16.6094 31.3768 16.3824 31.2008 16.1255C31.0309 15.8646 30.905 15.5041 30.905 15.0222V6.08838H32.8901ZM36.4926 12.73C36.4926 11.9712 36.8305 11.2902 37.3622 10.8281L35.9348 9.2429C34.9673 10.0953 34.3575 11.3399 34.3575 12.726C34.3555 14.1141 34.9653 15.3608 35.9308 16.2131L37.3562 14.6279C36.8265 14.1639 36.4926 13.4868 36.4926 12.73V12.73ZM39.0275 15.2572C38.7477 15.2572 38.4758 15.2094 38.2239 15.1258L37.5422 17.1431C38.008 17.2985 38.5058 17.3841 39.0255 17.3841C41.2846 17.3861 43.1698 15.7889 43.6076 13.668L41.5125 13.2418C41.2746 14.3949 40.253 15.2592 39.0275 15.2572V15.2572ZM39.0335 8.07589C38.5158 8.07589 38.018 8.15953 37.5522 8.31287L38.2279 10.3322C38.4818 10.2486 38.7517 10.2028 39.0315 10.2028C40.259 10.2048 41.2826 11.0731 41.5145 12.2281L43.6096 11.8059C43.1798 9.68103 41.2946 8.07788 39.0335 8.07589V8.07589Z" fill="white"/>
</g>
<defs>
<clipPath id="clip0_414_286">
<rect width="46.75" height="22" fill="white" transform="translate(0.25 0.691406)"/>
</clipPath>
</defs>
</svg>
